<?xml version="1.0" encoding="iso-8859-1"?>
<!-- Generator: Adobe Illustrator 19.0.0, SVG Export Plug-In . SVG Version: 6.00 Build 0)  -->
<svg version="1.1" id="Layer_1" xmlns="http://www.w3.org/2000/svg" xmlns:xlink="http://www.w3.org/1999/xlink" x="0px" y="0px"
	 viewBox="0 0 512 512" style="enable-background:new 0 0 512 512;" xml:space="preserve">
<rect x="183.971" y="357.978" style="fill:#666666;" width="144.051" height="108.334"/>
<polygon style="fill:#333333;" points="183.976,376.72 269.688,376.72 183.976,434.624 "/>
<g>
	<path style="fill:#D6D6D6;" d="M369.52,487.279H142.496c-8.826-0.026-15.973-7.174-16-16l0,0c0.026-8.826,7.175-15.973,16-16
		h227.008c8.826,0.026,15.973,7.174,16,16l0,0C385.504,480.11,378.35,487.271,369.52,487.279z"/>
	<path style="fill:#D6D6D6;" d="M480,376.72H32c-17.651-0.053-31.947-14.349-32-32v-288c0.053-17.651,14.349-31.947,32-32h448
		c17.651,0.053,31.947,14.349,32,32v288C511.947,362.371,497.651,376.667,480,376.72z"/>
</g>
<rect x="21.964" y="46.656" style="fill:#FFFFFF;" width="468.098" height="308.124"/>
<g>
	<path style="fill:#E21B1B;" d="M69,201.472c0.254,6.565,5.782,11.681,12.347,11.427c0.382-0.015,0.763-0.048,1.141-0.1
		c4.131,0.109,8.246-0.562,12.128-1.976l1.6,7.64c-4.874,1.856-10.057,2.77-15.272,2.696c-11.381,1.05-21.46-7.324-22.511-18.705
		c-0.105-1.132-0.115-2.272-0.033-3.407c-1.039-11.915,7.779-22.416,19.694-23.455c0.559-0.049,1.121-0.076,1.683-0.081
		c10.506,0.005,19.02,8.526,19.015,19.032c0,0.754-0.046,1.507-0.135,2.256c0.011,1.564-0.109,3.127-0.36,4.672H69V201.472z
		 M88.2,193.744c0.709-5.147-2.89-9.895-8.037-10.603c-0.346-0.048-0.694-0.076-1.043-0.085c-5.667,0.344-10.104,5.011-10.16,10.688
		H88.2z"/>
	<path style="fill:#E21B1B;" d="M129.816,192.488v7.64h-22.912v-7.64H129.816z"/>
	<path style="fill:#E21B1B;" d="M138.4,156.464h11.2v63.792h-11.2V156.464z"/>
	<path style="fill:#E21B1B;" d="M169.312,201.472c0.254,6.565,5.782,11.681,12.347,11.427c0.382-0.015,0.763-0.048,1.141-0.1
		c4.131,0.109,8.246-0.562,12.128-1.976l1.6,7.64c-4.874,1.856-10.057,2.77-15.272,2.696c-11.381,1.05-21.46-7.325-22.511-18.706
		c-0.104-1.129-0.115-2.266-0.033-3.397c-1.039-11.915,7.779-22.416,19.694-23.455c0.559-0.049,1.121-0.076,1.683-0.081
		c10.506,0.005,19.02,8.527,19.014,19.033c0,0.75-0.046,1.501-0.134,2.246c0.011,1.564-0.109,3.127-0.36,4.672h-29.295V201.472z
		 M188.512,193.744c0.709-5.147-2.89-9.895-8.037-10.603c-0.346-0.048-0.694-0.076-1.043-0.085
		c-5.667,0.344-10.104,5.011-10.16,10.688H188.512z"/>
	<path style="fill:#E21B1B;" d="M232.464,220.256l-0.72-4.848h-0.272c-3.189,3.826-7.957,5.976-12.936,5.832
		c-7.159,0.415-13.299-5.051-13.715-12.21c-0.016-0.271-0.023-0.543-0.022-0.814c0-11.056,9.792-16.624,25.96-16.528v-0.72
		c0-2.872-1.168-7.64-8.888-7.64c-4.137-0.002-8.201,1.103-11.768,3.2l-2.16-7.2c4.843-2.649,10.297-3.979,15.816-3.856
		c8.979-1.014,17.079,5.441,18.094,14.42c0.149,1.323,0.137,2.66-0.037,3.981v15.816c-0.055,3.515,0.157,7.029,0.632,10.512
		L232.464,220.256z M231.024,198.872c-7.824-0.176-15.272,1.52-15.272,8.168c-0.282,3.191,2.076,6.006,5.267,6.288
		c0.339,0.03,0.681,0.03,1.021,0c3.873,0.07,7.352-2.357,8.624-6.016c0.244-0.776,0.365-1.586,0.36-2.4V198.872z"/>
	<path style="fill:#E21B1B;" d="M253.471,190.6c0-5.928-0.095-10.16-0.36-14.112h9.6l0.36,8.36h0.36
		c1.578-5.349,6.38-9.103,11.952-9.344c0.876-0.01,1.751,0.079,2.608,0.264v10.4c-1.051-0.231-2.124-0.352-3.2-0.36
		c-4.938-0.119-9.184,3.471-9.888,8.36c-0.219,1.126-0.339,2.269-0.36,3.416v22.64h-11.072V190.6H253.471z"/>
	<path style="fill:#E21B1B;" d="M285.447,189.528c0-5.032-0.088-9.256-0.36-13.032h9.704l0.536,6.56h0.264
		c2.955-4.83,8.269-7.708,13.928-7.544c7.632,0,15.536,4.936,15.536,18.776v25.968h-11.04v-24.712c0-6.288-2.337-11.048-8.36-11.048
		c-3.962,0.094-7.426,2.695-8.624,6.472c-0.342,1.166-0.493,2.378-0.448,3.592v25.696h-11.137v-30.728H285.447z"/>
	<path style="fill:#E21B1B;" d="M348.592,164.272c0.106,3.427-2.586,6.291-6.013,6.397c-3.427,0.106-6.291-2.586-6.397-6.013
		c-0.106-3.427,2.586-6.291,6.013-6.397c0.065-0.002,0.132-0.003,0.197-0.003c3.228-0.191,6.001,2.271,6.193,5.499
		C348.594,163.927,348.597,164.099,348.592,164.272z M336.816,220.272v-43.76H348v43.76H336.816z"/>
	<path style="fill:#E21B1B;" d="M359.816,189.528c0-5.032-0.096-9.256-0.36-13.032h9.704l0.536,6.56h0.272
		c2.949-4.832,8.262-7.712,13.92-7.544c7.64,0,15.544,4.936,15.544,18.776v25.968h-11.048v-24.712
		c0-6.288-2.336-11.048-8.352-11.048c-3.963,0.09-7.43,2.691-8.624,6.472c-0.345,1.165-0.499,2.378-0.456,3.592v25.696h-11.136
		V189.528z"/>
	<path style="fill:#E21B1B;" d="M451.2,176.496c-0.184,2.968-0.36,6.56-0.36,12.576v24.8c0.792,7.241-1.565,14.473-6.472,19.856
		c-4.804,3.75-10.803,5.631-16.888,5.296c-5.309,0.163-10.571-1.041-15.28-3.496l2.4-8.36c3.904,2.169,8.293,3.314,12.76,3.328
		c6.397,0.584,12.057-4.128,12.642-10.526c0.082-0.894,0.059-1.794-0.065-2.682v-3.775h-0.176c-2.853,4.212-7.676,6.659-12.76,6.472
		c-10.707-0.389-19.072-9.384-18.683-20.092c0.016-0.432,0.046-0.863,0.09-1.292c-1.193-11.51,7.171-21.807,18.681-23
		c0.388-0.04,0.777-0.07,1.167-0.088c5.17-0.288,10.064,2.353,12.664,6.832h0.184l0.448-5.84L451.2,176.496z M439.784,194.016
		c0.021-1.002-0.101-2-0.36-2.968c-0.971-4.173-4.7-7.117-8.984-7.096c-6.192,0-10.784,5.392-10.784,14.279
		c0,7.464,3.776,13.48,10.696,13.48c4.125-0.018,7.762-2.708,8.984-6.648c0.285-1.299,0.435-2.623,0.448-3.952L439.784,194.016z"/>
</g>
<g>
</g>
<g>
</g>
<g>
</g>
<g>
</g>
<g>
</g>
<g>
</g>
<g>
</g>
<g>
</g>
<g>
</g>
<g>
</g>
<g>
</g>
<g>
</g>
<g>
</g>
<g>
</g>
<g>
</g>
</svg>
